<svg width="80" height="64" viewBox="0 0 80 64" fill="none" xmlns="http://www.w3.org/2000/svg">
<path d="M73.2093 54.832C80.7517 46.64 79.9922 36.12 79.9683 36V4C79.9683 2.93913 79.5471 1.92172 78.7976 1.17157C78.048 0.421428 77.0313 0 75.9712 0H51.9892C47.5805 0 43.9951 3.588 43.9951 8V36C43.9951 37.0609 44.4162 38.0783 45.1658 38.8284C45.9154 39.5786 46.9321 40 47.9921 40H60.2949C60.2105 41.9775 59.6201 43.9003 58.5802 45.584C56.5498 48.788 52.7246 50.976 47.2047 52.08L43.9951 52.72V64H47.9921C59.1158 64 67.6015 60.916 73.2093 54.832ZM29.2142 54.832C36.7605 46.64 35.9971 36.12 35.9731 36V4C35.9731 2.93913 35.552 1.92172 34.8024 1.17157C34.0528 0.421428 33.0362 0 31.9761 0H7.99403C3.58532 0 0 3.588 0 8V36C0 37.0609 0.421113 38.0783 1.1707 38.8284C1.92028 39.5786 2.93694 40 3.99701 40H16.2998C16.2154 41.9775 15.625 43.9003 14.5851 45.584C12.5546 48.788 8.72948 50.976 3.2096 52.08L0 52.72V64H3.99701C15.1207 64 23.6064 60.916 29.2142 54.832Z" fill="black" fill-opacity="0.1"/>
</svg>
