<svg width="29" height="29" viewBox="0 0 29 29" fill="none" xmlns="http://www.w3.org/2000/svg">
<path d="M28.718 11.6602H27.55V11.6H14.5V17.4H22.6947C21.4992 20.7763 18.2867 23.2 14.5 23.2C9.69543 23.2 5.8 19.3046 5.8 14.5C5.8 9.69543 9.69543 5.8 14.5 5.8C16.7178 5.8 18.7355 6.63665 20.2717 8.00327L24.3731 3.90195C21.7833 1.48843 18.3193 0 14.5 0C6.49238 0 0 6.49238 0 14.5C0 22.5076 6.49238 29 14.5 29C22.5076 29 29 22.5076 29 14.5C29 13.5278 28.9 12.5788 28.718 11.6602Z" fill="#FFC107"/>
<path d="M1.67188 7.75097L6.43585 11.2448C7.7249 8.0533 10.8468 5.8 14.5 5.8C16.7178 5.8 18.7355 6.63665 20.2718 8.00327L24.3731 3.90195C21.7834 1.48842 18.3193 0 14.5 0C8.93058 0 4.10063 3.14432 1.67188 7.75097Z" fill="#FF3D00"/>
<path d="M14.5004 28.9999C18.2458 28.9999 21.6489 27.5666 24.2219 25.2357L19.7342 21.4382C18.2295 22.5825 16.3908 23.2014 14.5004 23.1999C10.729 23.1999 7.52665 20.7951 6.32025 17.4391L1.5918 21.0822C3.99155 25.778 8.865 28.9999 14.5004 28.9999Z" fill="#4CAF50"/>
<path d="M28.718 11.6602H27.55V11.6H14.5V17.4H22.6947C22.1228 19.0069 21.0927 20.411 19.7316 21.439L19.7338 21.4375L24.2215 25.2351C23.904 25.5236 29 21.75 29 14.5C29 13.5278 28.9 12.5787 28.718 11.6602Z" fill="#1976D2"/>
</svg>
