<svg width="22px" height="22px" class="hidden">
  <symbol xmlns="http://www.w3.org/2000/svg" viewBox="0 0 22 22" id="facebook_contact">
    <path fill-rule="evenodd" clip-rule="evenodd" d="M0 11.0614C0 16.5303 3.97192 21.0778 9.16667 22V14.0553H6.41667V11H9.16667V8.55525C9.16667 5.80525 10.9386 4.27808 13.4447 4.27808C14.2386 4.27808 15.0948 4.4 15.8886 4.52192V7.33333H14.4833C13.1386 7.33333 12.8333 8.00525 12.8333 8.86142V11H15.7667L15.2781 14.0553H12.8333V22C18.0281 21.0778 22 16.5312 22 11.0614C22 4.9775 17.05 0 11 0C4.95 0 0 4.9775 0 11.0614Z"></path>
  </symbol>
  <symbol xmlns="http://www.w3.org/2000/svg" viewBox="0 0 22 23" id="viber_contact">
    <path d="M18.7859 3.21277C17.7727 2.19023 16.5662 1.37955 15.2366 0.827975C13.907 0.276402 12.4809 -0.00503353 11.0414 6.81361e-05C5.00967 6.81361e-05 0.0939226 4.91443 0.0883978 10.9476C0.0883978 12.8799 0.593923 14.7597 1.54834 16.4241L0 22.0995L5.80663 20.5774C7.41299 21.4516 9.21261 21.9098 11.0414 21.9103H11.047C17.0801 21.9103 21.9945 16.9959 22 10.9572C22.0014 9.51808 21.718 8.09287 21.1661 6.76371C20.6143 5.43456 19.8048 4.22773 18.7845 3.21277H18.7859ZM11.0414 20.0567C9.41021 20.0572 7.80898 19.6183 6.40608 18.786L6.07458 18.5871L2.62983 19.4904L3.54972 16.1299L3.33425 15.7832C2.42238 14.3334 1.94012 12.6548 1.94337 10.9421C1.94337 5.93377 6.02762 1.84813 11.047 1.84813C12.2427 1.84599 13.4271 2.08056 14.5318 2.53832C15.6365 2.99607 16.6396 3.66797 17.4834 4.51526C18.3302 5.35925 19.0014 6.36253 19.4585 7.46724C19.9155 8.57194 20.1493 9.7562 20.1464 10.9517C20.1409 15.978 16.0566 20.0567 11.0414 20.0567ZM16.0345 13.2418C15.7624 13.105 14.4185 12.4434 14.1657 12.3495C13.9144 12.2597 13.7307 12.2128 13.5511 12.4863C13.3674 12.7584 12.8425 13.3785 12.6851 13.5567C12.5276 13.7404 12.3646 13.7611 12.0912 13.6258C11.8191 13.4876 10.9365 13.2003 9.89226 12.2653C9.07735 11.5401 8.53177 10.6423 8.36878 10.3702C8.21132 10.0968 8.35359 9.95034 8.49033 9.8136C8.61049 9.69205 8.76243 9.49316 8.89917 9.3357C9.03729 9.17824 9.08287 9.06222 9.17265 8.8799C9.26243 8.69482 9.21961 8.53736 9.15193 8.40062C9.08287 8.26388 8.53729 6.91443 8.30663 6.37023C8.08563 5.83294 7.86049 5.90752 7.69199 5.90062C7.53453 5.89095 7.35083 5.89095 7.16713 5.89095C7.0284 5.8944 6.89189 5.92648 6.76615 5.98519C6.64041 6.0439 6.52817 6.12797 6.43646 6.23211C6.18508 6.50559 5.48204 7.16719 5.48204 8.51664C5.48204 9.86609 6.46271 11.163 6.60083 11.3468C6.73619 11.5305 8.52624 14.2915 11.2735 15.4793C11.9226 15.7625 12.4337 15.9296 12.8329 16.0567C13.4889 16.2666 14.0815 16.2349 14.5539 16.1672C15.0787 16.0871 16.1713 15.5042 16.4019 14.8647C16.6284 14.2238 16.6284 13.6769 16.5594 13.5622C16.4917 13.4462 16.308 13.3785 16.0345 13.2418Z"></path>
  </symbol>
  <symbol xmlns="http://www.w3.org/2000/svg" viewBox="0 0 22 22" id="inst_contact">
    <path fill-rule="evenodd" clip-rule="evenodd" d="M6.465 0.066C7.638 0.012 8.012 0 11 0C13.988 0 14.362 0.013 15.534 0.066C16.706 0.119 17.506 0.306 18.206 0.577C18.939 0.854 19.604 1.287 20.154 1.847C20.714 2.396 21.146 3.06 21.422 3.794C21.694 4.494 21.88 5.294 21.934 6.464C21.988 7.639 22 8.013 22 11C22 13.988 21.987 14.362 21.934 15.535C21.881 16.705 21.694 17.505 21.422 18.205C21.146 18.9391 20.7133 19.6042 20.154 20.154C19.604 20.714 18.939 21.146 18.206 21.422C17.506 21.694 16.706 21.88 15.536 21.934C14.362 21.988 13.988 22 11 22C8.012 22 7.638 21.987 6.465 21.934C5.295 21.881 4.495 21.694 3.795 21.422C3.06092 21.146 2.39582 20.7133 1.846 20.154C1.28638 19.6047 0.853315 18.9399 0.577 18.206C0.306 17.506 0.12 16.706 0.066 15.536C0.012 14.361 0 13.987 0 11C0 8.012 0.013 7.638 0.066 6.466C0.119 5.294 0.306 4.494 0.577 3.794C0.853723 3.06008 1.28712 2.39531 1.847 1.846C2.39604 1.2865 3.06047 0.853443 3.794 0.577C4.494 0.306 5.294 0.12 6.464 0.066H6.465ZM15.445 2.046C14.285 1.993 13.937 1.982 11 1.982C8.063 1.982 7.715 1.993 6.555 2.046C5.482 2.095 4.9 2.274 4.512 2.425C3.999 2.625 3.632 2.862 3.247 3.247C2.88205 3.60205 2.60118 4.03428 2.425 4.512C2.274 4.9 2.095 5.482 2.046 6.555C1.993 7.715 1.982 8.063 1.982 11C1.982 13.937 1.993 14.285 2.046 15.445C2.095 16.518 2.274 17.1 2.425 17.488C2.601 17.965 2.882 18.398 3.247 18.753C3.602 19.118 4.035 19.399 4.512 19.575C4.9 19.726 5.482 19.905 6.555 19.954C7.715 20.007 8.062 20.018 11 20.018C13.938 20.018 14.285 20.007 15.445 19.954C16.518 19.905 17.1 19.726 17.488 19.575C18.001 19.375 18.368 19.138 18.753 18.753C19.118 18.398 19.399 17.965 19.575 17.488C19.726 17.1 19.905 16.518 19.954 15.445C20.007 14.285 20.018 13.937 20.018 11C20.018 8.063 20.007 7.715 19.954 6.555C19.905 5.482 19.726 4.9 19.575 4.512C19.375 3.999 19.138 3.632 18.753 3.247C18.3979 2.88207 17.9657 2.60121 17.488 2.425C17.1 2.274 16.518 2.095 15.445 2.046ZM9.595 14.391C10.3797 14.7176 11.2534 14.7617 12.0669 14.5157C12.8805 14.2697 13.5834 13.7489 14.0556 13.0422C14.5278 12.3356 14.7401 11.4869 14.656 10.6411C14.572 9.79534 14.197 9.00497 13.595 8.405C13.2112 8.02148 12.7472 7.72781 12.2363 7.54515C11.7255 7.36248 11.1804 7.29536 10.6405 7.34862C10.1006 7.40187 9.57915 7.57418 9.1138 7.85313C8.64845 8.13208 8.25074 8.51074 7.9493 8.96185C7.64786 9.41296 7.45019 9.92529 7.37052 10.462C7.29084 10.9986 7.33115 11.5463 7.48854 12.0655C7.64593 12.5847 7.91648 13.0626 8.28072 13.4647C8.64496 13.8668 9.09382 14.1832 9.595 14.391ZM7.002 7.002C7.52702 6.47697 8.15032 6.0605 8.8363 5.77636C9.52228 5.49222 10.2575 5.34597 11 5.34597C11.7425 5.34597 12.4777 5.49222 13.1637 5.77636C13.8497 6.0605 14.473 6.47697 14.998 7.002C15.523 7.52702 15.9395 8.15032 16.2236 8.8363C16.5078 9.52228 16.654 10.2575 16.654 11C16.654 11.7425 16.5078 12.4777 16.2236 13.1637C15.9395 13.8497 15.523 14.473 14.998 14.998C13.9377 16.0583 12.4995 16.654 11 16.654C9.50046 16.654 8.06234 16.0583 7.002 14.998C5.94166 13.9377 5.34597 12.4995 5.34597 11C5.34597 9.50046 5.94166 8.06234 7.002 7.002ZM17.908 6.188C18.0381 6.06527 18.1423 5.91768 18.2143 5.75397C18.2863 5.59027 18.3248 5.41377 18.3274 5.23493C18.33 5.05609 18.2967 4.87855 18.2295 4.71281C18.1622 4.54707 18.0624 4.39651 17.936 4.27004C17.8095 4.14357 17.6589 4.04376 17.4932 3.97652C17.3275 3.90928 17.1499 3.87598 16.9711 3.87858C16.7922 3.88119 16.6157 3.91965 16.452 3.9917C16.2883 4.06374 16.1407 4.1679 16.018 4.298C15.7793 4.55103 15.6486 4.88712 15.6537 5.23493C15.6588 5.58274 15.7992 5.91488 16.0452 6.16084C16.2911 6.40681 16.6233 6.54723 16.9711 6.5523C17.3189 6.55737 17.655 6.42669 17.908 6.188Z"></path>
  </symbol>
  <symbol xmlns="http://www.w3.org/2000/svg" viewBox="0 0 31 22" id="youtube_contact">
    <path d="M30.353 3.43662C30.1765 2.77115 29.8305 2.16428 29.3497 1.67675C28.8688 1.18922 28.2698 0.83812 27.6128 0.658599C25.1944 1.33636e-07 15.5 0 15.5 0C15.5 0 5.80558 -1.33636e-07 3.38716 0.655095C2.72987 0.834035 2.13064 1.18494 1.64966 1.67256C1.16868 2.16018 0.822881 2.76736 0.646986 3.43312C-1.31982e-07 5.88535 0 11 0 11C0 11 -1.31982e-07 16.1147 0.646986 18.5634C1.00335 19.9156 2.05513 20.9806 3.38716 21.3414C5.80558 22 15.5 22 15.5 22C15.5 22 25.1944 22 27.6128 21.3414C28.9483 20.9806 29.9967 19.9156 30.353 18.5634C31 16.1147 31 11 31 11C31 11 31 5.88535 30.353 3.43662ZM12.4208 15.6943V6.30573L20.4475 10.965L12.4208 15.6943Z"></path>
  </symbol>
   <symbol xmlns="http://www.w3.org/2000/svg" viewBox="0 0 29 29" id="TADV">
    <path d="M14.5 29C22.5081 29 29 22.5081 29 14.5C29 6.49187 22.5081 0 14.5 0C6.49187 0 0 6.49187 0 14.5C0 22.5081 6.49187 29 14.5 29Z" fill="#34E0A1"></path>
    <path d="M23.4563 11.6713L25.206 9.76765H21.3259C19.3834 8.44075 17.0374 7.66797 14.5003 7.66797C11.9664 7.66797 9.62703 8.44242 7.68774 9.76765H3.79785L5.54758 11.6713C4.47508 12.6498 3.80273 14.0593 3.80273 15.6244C3.80273 18.5778 6.19729 20.9724 9.15075 20.9724C10.5538 20.9724 11.832 20.4313 12.7863 19.5467L14.5004 21.413L16.2144 19.5483C17.1687 20.4329 18.4453 20.9724 19.8483 20.9724C22.8018 20.9724 25.1996 18.5778 25.1996 15.6244C25.2012 14.0577 24.5288 12.6482 23.4563 11.6713ZM9.15234 19.2437C7.15309 19.2437 5.53302 17.6236 5.53302 15.6244C5.53302 13.6251 7.15313 12.005 9.15234 12.005C11.1515 12.005 12.7716 13.6251 12.7716 15.6244C12.7716 17.6236 11.1515 19.2437 9.15234 19.2437ZM14.5019 15.5191C14.5019 13.1375 12.7701 11.0929 10.4841 10.2197C11.7202 9.70282 13.0762 9.41607 14.5003 9.41607C15.9244 9.41607 17.282 9.70282 18.5182 10.2197C16.2339 11.0945 14.5019 13.1375 14.5019 15.5191ZM19.85 19.2437C17.8507 19.2437 16.2306 17.6236 16.2306 15.6244C16.2306 13.6251 17.8507 12.005 19.85 12.005C21.8492 12.005 23.4693 13.6251 23.4693 15.6244C23.4693 17.6236 21.8492 19.2437 19.85 19.2437ZM19.85 13.7256C18.8017 13.7256 17.9528 14.5745 17.9528 15.6228C17.9528 16.6709 18.8017 17.5199 19.85 17.5199C20.8982 17.5199 21.7471 16.6709 21.7471 15.6228C21.7471 14.5761 20.8982 13.7256 19.85 13.7256ZM11.0495 15.6244C11.0495 16.6726 10.2005 17.5215 9.15234 17.5215C8.10414 17.5215 7.25519 16.6726 7.25519 15.6244C7.25519 14.5761 8.10414 13.7272 9.15234 13.7272C10.2005 13.7256 11.0495 14.5761 11.0495 15.6244Z" fill="black"></path>
  </symbol>
  <symbol xmlns="http://www.w3.org/2000/svg" viewBox="0 0 29 29" id="Google">
    <path d="M28.718 11.6602H27.55V11.6H14.5V17.4H22.6947C21.4992 20.7763 18.2867 23.2 14.5 23.2C9.69543 23.2 5.8 19.3046 5.8 14.5C5.8 9.69543 9.69543 5.8 14.5 5.8C16.7178 5.8 18.7355 6.63665 20.2717 8.00327L24.3731 3.90195C21.7833 1.48843 18.3193 0 14.5 0C6.49238 0 0 6.49238 0 14.5C0 22.5076 6.49238 29 14.5 29C22.5076 29 29 22.5076 29 14.5C29 13.5278 28.9 12.5788 28.718 11.6602Z" fill="#FFC107"></path>
    <path d="M1.67188 7.75097L6.43585 11.2448C7.7249 8.0533 10.8468 5.8 14.5 5.8C16.7178 5.8 18.7355 6.63665 20.2718 8.00327L24.3731 3.90195C21.7834 1.48842 18.3193 0 14.5 0C8.93058 0 4.10063 3.14432 1.67188 7.75097Z" fill="#FF3D00"></path>
    <path d="M14.5004 28.9999C18.2458 28.9999 21.6489 27.5666 24.2219 25.2357L19.7342 21.4382C18.2295 22.5825 16.3908 23.2014 14.5004 23.1999C10.729 23.1999 7.52665 20.7951 6.32025 17.4391L1.5918 21.0822C3.99155 25.778 8.865 28.9999 14.5004 28.9999Z" fill="#4CAF50"></path>
    <path d="M28.718 11.6602H27.55V11.6H14.5V17.4H22.6947C22.1228 19.0069 21.0927 20.411 19.7316 21.439L19.7338 21.4375L24.2215 25.2351C23.904 25.5236 29 21.75 29 14.5C29 13.5278 28.9 12.5787 28.718 11.6602Z" fill="#1976D2"></path>
  </symbol>
  <symbol xmlns="http://www.w3.org/2000/svg" viewBox="0 0 55 55" id="gallery">
    <path d="M1 11.6C1 8.78871 2.11678 6.09255 4.10467 4.10467C6.09255 2.11678 8.78871 1 11.6 1H43.4C46.2113 1 48.9074 2.11678 50.8953 4.10467C52.8832 6.09255 54 8.78871 54 11.6V43.4C54 46.2113 52.8832 48.9074 50.8953 50.8953C48.9074 52.8832 46.2113 54 43.4 54H11.6C8.78871 54 6.09255 52.8832 4.10467 50.8953C2.11678 48.9074 1 46.2113 1 43.4V11.6Z" stroke="black" stroke-opacity="0.2" stroke-width="2" stroke-linecap="round" stroke-linejoin="round"></path>
    <path d="M18.2246 24.85C21.8835 24.85 24.8496 21.8839 24.8496 18.225C24.8496 14.5661 21.8835 11.6 18.2246 11.6C14.5657 11.6 11.5996 14.5661 11.5996 18.225C11.5996 21.8839 14.5657 24.85 18.2246 24.85Z" stroke="black" stroke-opacity="0.2" stroke-width="2" stroke-linecap="round" stroke-linejoin="round"></path>
    <path d="M34.1935 29.1458L11.5996 54.0001H43.7521C46.4699 54.0001 49.0764 52.9205 50.9982 50.9987C52.92 49.0769 53.9996 46.4704 53.9996 43.7526V43.4002C53.9996 42.1653 53.5359 41.6909 52.7011 40.7767L42.0216 29.1299C41.5239 28.587 40.9184 28.1537 40.2439 27.8578C39.5694 27.5619 38.8406 27.4099 38.1041 27.4114C37.3675 27.4129 36.6393 27.5679 35.966 27.8665C35.2927 28.1651 34.689 28.6008 34.1935 29.1458V29.1458Z" stroke="black" stroke-opacity="0.2" stroke-width="2" stroke-linecap="round" stroke-linejoin="round"></path>
  </symbol>
</svg>