<svg width="29" height="29" viewBox="0 0 29 29" fill="none" xmlns="http://www.w3.org/2000/svg">
<path d="M14.5 29C22.5081 29 29 22.5081 29 14.5C29 6.49187 22.5081 0 14.5 0C6.49187 0 0 6.49187 0 14.5C0 22.5081 6.49187 29 14.5 29Z" fill="#34E0A1"/>
<path d="M23.4563 11.6713L25.206 9.76765H21.3259C19.3834 8.44075 17.0374 7.66797 14.5003 7.66797C11.9664 7.66797 9.62703 8.44242 7.68774 9.76765H3.79785L5.54758 11.6713C4.47508 12.6498 3.80273 14.0593 3.80273 15.6244C3.80273 18.5778 6.19729 20.9724 9.15075 20.9724C10.5538 20.9724 11.832 20.4313 12.7863 19.5467L14.5004 21.413L16.2144 19.5483C17.1687 20.4329 18.4453 20.9724 19.8483 20.9724C22.8018 20.9724 25.1996 18.5778 25.1996 15.6244C25.2012 14.0577 24.5288 12.6482 23.4563 11.6713ZM9.15234 19.2437C7.15309 19.2437 5.53302 17.6236 5.53302 15.6244C5.53302 13.6251 7.15313 12.005 9.15234 12.005C11.1515 12.005 12.7716 13.6251 12.7716 15.6244C12.7716 17.6236 11.1515 19.2437 9.15234 19.2437ZM14.5019 15.5191C14.5019 13.1375 12.7701 11.0929 10.4841 10.2197C11.7202 9.70282 13.0762 9.41607 14.5003 9.41607C15.9244 9.41607 17.282 9.70282 18.5182 10.2197C16.2339 11.0945 14.5019 13.1375 14.5019 15.5191ZM19.85 19.2437C17.8507 19.2437 16.2306 17.6236 16.2306 15.6244C16.2306 13.6251 17.8507 12.005 19.85 12.005C21.8492 12.005 23.4693 13.6251 23.4693 15.6244C23.4693 17.6236 21.8492 19.2437 19.85 19.2437ZM19.85 13.7256C18.8017 13.7256 17.9528 14.5745 17.9528 15.6228C17.9528 16.6709 18.8017 17.5199 19.85 17.5199C20.8982 17.5199 21.7471 16.6709 21.7471 15.6228C21.7471 14.5761 20.8982 13.7256 19.85 13.7256ZM11.0495 15.6244C11.0495 16.6726 10.2005 17.5215 9.15234 17.5215C8.10414 17.5215 7.25519 16.6726 7.25519 15.6244C7.25519 14.5761 8.10414 13.7272 9.15234 13.7272C10.2005 13.7256 11.0495 14.5761 11.0495 15.6244Z" fill="black"/>
</svg>
