<svg width="22" height="23" viewBox="0 0 22 23" fill="none" xmlns="http://www.w3.org/2000/svg">
<path d="M18.7859 3.21277C17.7727 2.19023 16.5662 1.37955 15.2366 0.827975C13.907 0.276402 12.4809 -0.00503353 11.0414 6.81361e-05C5.00967 6.81361e-05 0.0939226 4.91443 0.0883978 10.9476C0.0883978 12.8799 0.593923 14.7597 1.54834 16.4241L0 22.0995L5.80663 20.5774C7.41299 21.4516 9.21261 21.9098 11.0414 21.9103H11.047C17.0801 21.9103 21.9945 16.9959 22 10.9572C22.0014 9.51808 21.718 8.09287 21.1661 6.76371C20.6143 5.43456 19.8048 4.22773 18.7845 3.21277H18.7859ZM11.0414 20.0567C9.41021 20.0572 7.80898 19.6183 6.40608 18.786L6.07458 18.5871L2.62983 19.4904L3.54972 16.1299L3.33425 15.7832C2.42238 14.3334 1.94012 12.6548 1.94337 10.9421C1.94337 5.93377 6.02762 1.84813 11.047 1.84813C12.2427 1.84599 13.4271 2.08056 14.5318 2.53832C15.6365 2.99607 16.6396 3.66797 17.4834 4.51526C18.3302 5.35925 19.0014 6.36253 19.4585 7.46724C19.9155 8.57194 20.1493 9.7562 20.1464 10.9517C20.1409 15.978 16.0566 20.0567 11.0414 20.0567ZM16.0345 13.2418C15.7624 13.105 14.4185 12.4434 14.1657 12.3495C13.9144 12.2597 13.7307 12.2128 13.5511 12.4863C13.3674 12.7584 12.8425 13.3785 12.6851 13.5567C12.5276 13.7404 12.3646 13.7611 12.0912 13.6258C11.8191 13.4876 10.9365 13.2003 9.89226 12.2653C9.07735 11.5401 8.53177 10.6423 8.36878 10.3702C8.21132 10.0968 8.35359 9.95034 8.49033 9.8136C8.61049 9.69205 8.76243 9.49316 8.89917 9.3357C9.03729 9.17824 9.08287 9.06222 9.17265 8.8799C9.26243 8.69482 9.21961 8.53736 9.15193 8.40062C9.08287 8.26388 8.53729 6.91443 8.30663 6.37023C8.08563 5.83294 7.86049 5.90752 7.69199 5.90062C7.53453 5.89095 7.35083 5.89095 7.16713 5.89095C7.0284 5.8944 6.89189 5.92648 6.76615 5.98519C6.64041 6.0439 6.52817 6.12797 6.43646 6.23211C6.18508 6.50559 5.48204 7.16719 5.48204 8.51664C5.48204 9.86609 6.46271 11.163 6.60083 11.3468C6.73619 11.5305 8.52624 14.2915 11.2735 15.4793C11.9226 15.7625 12.4337 15.9296 12.8329 16.0567C13.4889 16.2666 14.0815 16.2349 14.5539 16.1672C15.0787 16.0871 16.1713 15.5042 16.4019 14.8647C16.6284 14.2238 16.6284 13.6769 16.5594 13.5622C16.4917 13.4462 16.308 13.3785 16.0345 13.2418Z" fill="black"/>
</svg>
