<svg width="55" height="55" viewBox="0 0 55 55" fill="none" xmlns="http://www.w3.org/2000/svg">
<path d="M1 11.6C1 8.78871 2.11678 6.09255 4.10467 4.10467C6.09255 2.11678 8.78871 1 11.6 1H43.4C46.2113 1 48.9074 2.11678 50.8953 4.10467C52.8832 6.09255 54 8.78871 54 11.6V43.4C54 46.2113 52.8832 48.9074 50.8953 50.8953C48.9074 52.8832 46.2113 54 43.4 54H11.6C8.78871 54 6.09255 52.8832 4.10467 50.8953C2.11678 48.9074 1 46.2113 1 43.4V11.6Z" stroke="black" stroke-opacity="0.2" stroke-width="2" stroke-linecap="round" stroke-linejoin="round"/>
<path d="M18.2246 24.85C21.8835 24.85 24.8496 21.8839 24.8496 18.225C24.8496 14.5661 21.8835 11.6 18.2246 11.6C14.5657 11.6 11.5996 14.5661 11.5996 18.225C11.5996 21.8839 14.5657 24.85 18.2246 24.85Z" stroke="black" stroke-opacity="0.2" stroke-width="2" stroke-linecap="round" stroke-linejoin="round"/>
<path d="M34.1935 29.1458L11.5996 54.0001H43.7521C46.4699 54.0001 49.0764 52.9205 50.9982 50.9987C52.92 49.0769 53.9996 46.4704 53.9996 43.7526V43.4002C53.9996 42.1653 53.5359 41.6909 52.7011 40.7767L42.0216 29.1299C41.5239 28.587 40.9184 28.1537 40.2439 27.8578C39.5694 27.5619 38.8406 27.4099 38.1041 27.4114C37.3675 27.4129 36.6393 27.5679 35.966 27.8665C35.2927 28.1651 34.689 28.6008 34.1935 29.1458V29.1458Z" stroke="black" stroke-opacity="0.2" stroke-width="2" stroke-linecap="round" stroke-linejoin="round"/>
</svg>
